<svg width="208" height="107" xmlns="http://www.w3.org/2000/svg"><defs><linearGradient x1="-1.724%" y1="0%" x2="101.724%" y2="100%" id="a"><stop stop-color="#F5558A" offset="0%"/><stop stop-color="#FD41DC" offset="100%"/></linearGradient></defs><g fill="none" fill-rule="evenodd"><path d="M0 0h208v107H0z"/><g transform="translate(79 57)"><rect fill="url(#a)" width="50" height="50" rx="25"/><path stroke="#FFF" stroke-width="4" stroke-linecap="round" d="M12.931 26.203l9.237 7.494L37.931 16.38"/></g><path fill="#7ACCFF" d="M64.4 5h-4L58 9h4z"/><path fill="#FFEB93" d="M40 53.968h4.306L46.89 45h-4.306z"/><path fill="#FFA17A" d="M45 47.917l-1.115-3.832-4.828-1.273 1.115 3.832z"/><path fill="#FFEB93" d="M168.62 98.954l-4.974 3.355-6.34-2.96 4.975-3.356z"/><path fill="#FFE05B" d="M177 42h-5l-3 5h5z"/><path fill="#FF7AD0" d="M166.596 56.56l-3.535-3.535-3.657 3.414 3.535 3.536zM15.548 65.61l-.583-4.101-3.184.796.583 4.1z"/><path fill="#7AA8FF" d="M101.98 31.146l3.535-3.535 4.596 2.497-3.535 3.535z"/><path fill="#FFA17A" d="M145.45 11.717l-1.294-7.83-5.606-1.604 1.294 7.83zM31.55 101.717l1.294-4.83 5.606-1.604-1.294 4.83z"/><path fill="#7ACCFF" d="M193.55 73.717l.776-4.898 4.364-.962-.776 4.897z"/></g></svg>